{"title":"3 Days To Kill 2014 Cam x264 AC3 TiTAN","uid":9652921,"size":1063251944,"categoryP":"video","categoryS":"movies","magnet":"?xt=urn:btih:618e97b668139707e7381f174997d8bcd8f28e54&amp;dn=3+Days+To+Kill+2014+Cam+x264+AC3+TiTAN&amp;tr=udp%3A%2F%2Ftracker.openbittorrent.com%3A80&amp;tr=udp%3A%2F%2Fopen.demonii.com%3A1337&amp;tr=udp%3A%2F%2Ftracker.coppersurfer.tk%3A6969&amp;tr=udp%3A%2F%2Fexodus.desync.com%3A6969","seeders":4,"leechers":0,"uploader":".SceNe.","files":2,"time":1393124975,"description":" &lt;a href=&quot;http://i.imgur.com/ECCi71f.jpg&quot; rel=&quot;nofollow&quot; target=&quot;_NEW&quot;&gt;http://i.imgur.com/ECCi71f.jpg&lt;/a&gt;\n\nSource latino TS\n\nOK took Latino source just evened out the color and brightness best i could and cropped.. Vid and audio are pretty good other than watermarks.. but still very watchable..  BTW Watermarks were not put there bye me nor do i support that site.. so no bitching at me i am just sharing\n\nGeneral\n\nFormat                                   : Matroska\nFormat version                           : Version 2\nFile size                                : 1 014 MiB\nDuration                                 : 1h 51mn\nOverall bit rate mode                    : Variable\nOverall bit rate                         : 1 277 Kbps\nEncoded date                             : UTC 2014-02-23 23:31:03\nWriting application                      : mkvmerge v6.7.0 ('Back to the Ground') 32bit built on Jan  8 2014 15:03:17\nWriting library                          : libebml v1.3.0 + libmatroska v1.4.1\n\nVideo\nID                                       : 1\nFormat                                   : AVC\nFormat/Info                              : Advanced Video Codec\nFormat profile                           : &lt;a class=&quot;__cf_email__&quot; href=&quot;/cdn-cgi/l/email-protection&quot; data-cfemail=&quot;f5bd9c929db5b9c1dbc4&quot;&gt;[email&amp;#160;protected]&lt;/a&gt;&lt;script cf-hash='f9e31' type=&quot;text/javascript&quot;&gt;\n/* &lt;![CDATA[ */!function(){try{var t=&quot;currentScript&quot;in document?document.currentScript:function(){for(var t=document.getElementsByTagName(&quot;script&quot;),e=t.length;e--;)if(t[e].getAttribute(&quot;cf-hash&quot;))return t[e]}();if(t&amp;&amp;t.previousSibling){var e,r,n,i,c=t.previousSibling,a=c.getAttribute(&quot;data-cfemail&quot;);if(a){for(e=&quot;&quot;,r=parseInt(a.substr(0,2),16),n=2;a.length-n;n+=2)i=parseInt(a.substr(n,2),16)^r,e+=String.fromCharCode(i);e=document.createTextNode(e),c.parentNode.replaceChild(e,c)}}}catch(u){}}();/* ]]&gt; */&lt;/script&gt;\nFormat settings, CABAC                   : Yes\nFormat settings, ReFrames                : 3 frames\nCodec ID                                 : V_MPEG4/ISO/AVC\nDuration                                 : 1h 51mn\nBit rate mode                            : Variable\nBit rate                                 : 1 059 Kbps\nMaximum bit rate                         : 40.0 Mbps\nWidth                                    : 720 pixels\nHeight                                   : 320 pixels\nDisplay aspect ratio                     : 2.25:1\nFrame rate mode                          : Constant\nFrame rate                               : 15.000 fps\nColor space                              : YUV\nChroma subsampling                       : 4:2:0\nBit depth                                : 8 bits\nScan type                                : Progressive\nBits/(Pixel*Frame)                       : 0.307\nStream size                              : 841 MiB (83%)\nWriting library                          : x264 core 140 r2377 1ca7bb9\nDefault                                  : Yes\nForced                                   : No\nColor primaries                          : BT.709\nTransfer characteristics                 : BT.709\nMatrix coefficients                      : BT.709\n\nAudio\nID                                       : 2\nFormat                                   : AC-3\nFormat/Info                              : Audio Coding 3\nMode extension                           : CM (complete main)\nFormat settings, Endianness              : Big\nCodec ID                                 : A_AC3\nDuration                                 : 1h 51mn\nBit rate mode                            : Constant\nBit rate                                 : 192 Kbps\nChannel(s)                               : 2 channels\nChannel positions                        : Front: L R\nSampling rate                            : 48.0 KHz\nBit depth                                : 16 bits\nCompression mode                         : Lossy\nStream size                              : 152 MiB (15%)\nDefault                                  : Yes\nForced                                   : No\n &lt;a href=&quot;\nhttp://i.imgur.com/wovV5tJ.png&quot; rel=&quot;nofollow&quot; target=&quot;_NEW&quot;&gt;\nhttp://i.imgur.com/wovV5tJ.png&lt;/a&gt; &lt;a href=&quot;\nhttp://i.imgur.com/yoGQ9RF.png&quot; rel=&quot;nofollow&quot; target=&quot;_NEW&quot;&gt;\nhttp://i.imgur.com/yoGQ9RF.png&lt;/a&gt; &lt;a href=&quot;\nhttp://i.imgur.com/YYAl8N2.png&quot; rel=&quot;nofollow&quot; target=&quot;_NEW&quot;&gt;\nhttp://i.imgur.com/YYAl8N2.png&lt;/a&gt; &lt;a href=&quot;\nhttp://i.imgur.com/PYVHJv8.png&quot; rel=&quot;nofollow&quot; target=&quot;_NEW&quot;&gt;\nhttp://i.imgur.com/PYVHJv8.png&lt;/a&gt;","torrent":{"xt":"urn:btih:618e97b668139707e7381f174997d8bcd8f28e54","amp;dn":"3+Days+To+Kill+2014+Cam+x264+AC3+TiTAN","amp;tr":["udp%3A%2F%2Ftracker.openbittorrent.com%3A80","udp%3A%2F%2Fopen.demonii.com%3A1337","udp%3A%2F%2Ftracker.coppersurfer.tk%3A6969","udp%3A%2F%2Fexodus.desync.com%3A6969"],"infoHash":"618e97b668139707e7381f174997d8bcd8f28e54","infoHashBuffer":{"type":"Buffer","data":[97,142,151,182,104,19,151,7,231,56,31,23,73,151,216,188,216,242,142,84]},"announce":[],"urlList":[]}}